999
DXF created from QGIS
  0
SECTION
  2
HEADER
  9
$ACADVER
  1
AC1015
  9
$EXTMIN
 10
-18.41358975912712381
 20
-62.14240932831044972
 30
0.0
  9
$EXTMAX
 10
5.49629022095095898
 20
-29.86772369737178323
 30
0.0
  9
$LTSCALE
 40
1.0
  9
$PDMODE
 70
    33
  9
$PDSIZE
 40
     1
  9
$PSLTSCALE
 70
     0
  9
$HANDSEED
  5
9999999
  9
$DWGCODEPAGE
  3

  0
ENDSEC
  0
SECTION
  2
TABLES
  0
TABLE
  2
LTYPE
  5
64
100
AcDbSymbolTable
 70
     5
  0
LTYPE
  5
65
100
AcDbSymbolTableRecord
100
AcDbLinetypeTableRecord
  2
ByLayer
 70
    64
  3
Defaultstyle
 72
    65
 73
     0
 40
0.0
  0
LTYPE
  5
66
100
AcDbSymbolTableRecord
100
AcDbLinetypeTableRecord
  2
ByBlock
 70
    64
  3
Defaultstyle
 72
    65
 73
     0
 40
0.0
  0
LTYPE
  5
67
100
AcDbSymbolTableRecord
100
AcDbLinetypeTableRecord
  2
CONTINUOUS
 70
    64
  3
Defaultstyle
 72
    65
 73
     0
 40
0.0
  0
LTYPE
  5
68
100
AcDbSymbolTableRecord
100
AcDbLinetypeTableRecord
  2
DASH
 70
    64
  3

 72
    65
 73
     2
 40
0.00000002335619739
 49
0.00000001796630568
 74
     0
 49
-0.0000000053898917
 74
     0
  0
LTYPE
  5
69
100
AcDbSymbolTableRecord
100
AcDbLinetypeTableRecord
  2
DOT
 70
    64
  3

 72
    65
 73
     2
 40
0.00000001077978341
 49
0.0000000053898917
 74
     0
 49
-0.0000000053898917
 74
     0
  0
LTYPE
  5
6a
100
AcDbSymbolTableRecord
100
AcDbLinetypeTableRecord
  2
DASHDOT
 70
    64
  3

 72
    65
 73
     4
 40
0.0000000341359808
 49
0.00000001796630568
 74
     0
 49
-0.0000000053898917
 74
     0
 49
0.0000000053898917
 74
     0
 49
-0.0000000053898917
 74
     0
  0
LTYPE
  5
6b
100
AcDbSymbolTableRecord
100
AcDbLinetypeTableRecord
  2
DASHDOTDOT
 70
    64
  3

 72
    65
 73
     6
 40
0.00000004491576421
 49
0.00000001796630568
 74
     0
 49
-0.0000000053898917
 74
     0
 49
0.0000000053898917
 74
     0
 49
-0.0000000053898917
 74
     0
 49
0.0000000053898917
 74
     0
 49
-0.0000000053898917
 74
     0
  0
ENDTAB
  0
TABLE
  2
BLOCK_RECORD
  5
6c
100
AcDbSymbolTable
 70
     0
  0
BLOCK_RECORD
  5
6d
100
AcDbSymbolTableRecord
100
AcDbBlockTableRecord
  2
*Model_Space
  0
BLOCK_RECORD
  5
6e
100
AcDbSymbolTableRecord
100
AcDbBlockTableRecord
  2
*Paper_Space
  0
BLOCK_RECORD
  5
6f
100
AcDbSymbolTableRecord
100
AcDbBlockTableRecord
  2
*Paper_Space0
  0
ENDTAB
  0
TABLE
  2
APPID
  5
70
100
AcDbSymbolTable
 70
     1
  0
APPID
  5
71
100
AcDbSymbolTableRecord
100
AcDbRegAppTableRecord
  2
ACAD
 70
     0
  0
ENDTAB
  0
TABLE
  2
VIEW
  5
72
100
AcDbSymbolTable
 70
     0
  0
ENDTAB
  0
TABLE
  2
UCS
  5
73
100
AcDbSymbolTable
 70
     0
  0
ENDTAB
  0
TABLE
  2
VPORT
  5
74
100
AcDbSymbolTable
  0
VPORT
  5
75
100
AcDbSymbolTableRecord
100
AcDbViewportTableRecord
  2
*ACTIVE
 70
     0
 10
0.0
 20
0.0
 11
1.0
 21
1.0
 12
0.0
 22
0.0
 13
0.0
 23
0.0
 14
1.0
 24
1.0
 15
1.0
 25
1.0
 16
0.0
 26
0.0
 36
1.0
 17
-6.45864976908808242
 27
-46.00506651284111825
 40
32.27468563093866294
 41
0.74082456614722092
 42
50.0
 43
0.0
 44
0.0
 50
0.0
 51
0.0
 71
     0
 72
   100
 73
     1
 74
     1
 75
     0
 76
     0
 77
     0
 78
     0
281
     0
 65
     1
110
0.0
120
0.0
130
0.0
111
1.0
121
0.0
131
0.0
112
0.0
122
1.0
132
0.0
 79
     0
146
0.0
 70
     0
  0
ENDTAB
  0
TABLE
  2
DIMSTYLE
  5
76
100
AcDbSymbolTable
100
AcDbDimStyleTable
 70
     0
  0
ENDTAB
  0
TABLE
  2
LAYER
  5
77
100
AcDbSymbolTable
 70
     2
  0
LAYER
  5
78
100
AcDbSymbolTableRecord
100
AcDbLayerTableRecord
  2
0
 70
    64
 62
     1
  6
CONTINUOUS
390
f
  0
LAYER
  5
79
100
AcDbSymbolTableRecord
100
AcDbLayerTableRecord
  2
Antarctica_29_WGS84_new
 70
    64
 62
     1
  6
CONTINUOUS
390
f
  0
ENDTAB
  0
TABLE
  2
STYLE
  5
7a
100
AcDbSymbolTable
 70
     1
  0
STYLE
  5
7b
100
AcDbSymbolTableRecord
100
AcDbTextStyleTableRecord
  2
STANDARD
 70
    64
 40
0.0
 41
1.0
 50
0.0
 71
     0
 42
5.0
  3
romans.shx
  4

  0
ENDTAB
  0
ENDSEC
  0
SECTION
  2
BLOCKS
  0
BLOCK
  5
7c
330
6d
100
AcDbEntity
  8
0
100
AcDbBlockBegin
  2
*Model_Space
 70
     0
 10
0.0
 20
0.0
 30
0.0
  3
*Model_Space
  1

  0
ENDBLK
  5
7d
100
AcDbEntity
  8
0
100
AcDbBlockEnd
  0
BLOCK
  5
7e
330
6e
100
AcDbEntity
  8
0
100
AcDbBlockBegin
  2
*Paper_Space
 70
     0
 10
0.0
 20
0.0
 30
0.0
  3
*Paper_Space
  1

  0
ENDBLK
  5
7f
100
AcDbEntity
  8
0
100
AcDbBlockEnd
  0
BLOCK
  5
80
330
6f
100
AcDbEntity
  8
0
100
AcDbBlockBegin
  2
*Paper_Space0
 70
     0
 10
0.0
 20
0.0
 30
0.0
  3
*Paper_Space0
  1

  0
ENDBLK
  5
81
100
AcDbEntity
  8
0
100
AcDbBlockEnd
  0
ENDSEC
  0
SECTION
  2
ENTITIES
  0
LWPOLYLINE
  5
82
  8
Antarctica_29_WGS84_new
100
AcDbEntity
100
AcDbPolyline
  6
CONTINUOUS
420
2302755
 90
     5
 70
   129
 43
0.00000000233561974
 10
-6.5857527373903002
 20
-36.22037096210206641
 10
-8.72843415434155112
 20
-36.85403393763873225
 10
-10.09155157033208816
 20
-34.38664659543451307
 10
-8.04361183104184008
 20
-33.44974915351550493
 10
-6.5857527373903002
 20
-36.22037096210206641
  0
HATCH
  5
83
330
6d
100
AcDbEntity
  8
Antarctica_29_WGS84_new
420
15233421
100
AcDbHatch
 10
0.0
 20
0.0
 30
0.0
210
0.0
220
0.0
230
1.0
  2
SOLID
 70
     1
 71
     0
 91
     1
 92
     2
 72
     0
 73
     1
 93
     5
 10
-6.5857527373903002
 20
-36.22037096210206641
 10
-8.72843415434155112
 20
-36.85403393763873225
 10
-10.09155157033208816
 20
-34.38664659543451307
 10
-8.04361183104184008
 20
-33.44974915351550493
 10
-6.5857527373903002
 20
-36.22037096210206641
 97
     0
 75
     0
 76
     1
 98
     0
  0
LWPOLYLINE
  5
84
  8
Antarctica_29_WGS84_new
100
AcDbEntity
100
AcDbPolyline
  6
CONTINUOUS
420
2302755
 90
     5
 70
   129
 43
0.00000000233561974
 10
-8.72843415434155112
 20
-36.85403393763873225
 10
-11.1908954199536268
 20
-37.61559895525097375
 10
-12.67021674137448706
 20
-35.38913621108362406
 10
-10.09155157033208816
 20
-34.38664659543451307
 10
-8.72843415434155112
 20
-36.85403393763873225
  0
HATCH
  5
85
330
6d
100
AcDbEntity
  8
Antarctica_29_WGS84_new
420
15233421
100
AcDbHatch
 10
0.0
 20
0.0
 30
0.0
210
0.0
220
0.0
230
1.0
  2
SOLID
 70
     1
 71
     0
 91
     1
 92
     2
 72
     0
 73
     1
 93
     5
 10
-8.72843415434155112
 20
-36.85403393763873225
 10
-11.1908954199536268
 20
-37.61559895525097375
 10
-12.67021674137448706
 20
-35.38913621108362406
 10
-10.09155157033208816
 20
-34.38664659543451307
 10
-8.72843415434155112
 20
-36.85403393763873225
 97
     0
 75
     0
 76
     1
 98
     0
  0
LWPOLYLINE
  5
86
  8
Antarctica_29_WGS84_new
100
AcDbEntity
100
AcDbPolyline
  6
CONTINUOUS
420
2302755
 90
     8
 70
   129
 43
0.00000000233561974
 10
-11.1908954199536268
 20
-37.61559895525097375
 10
-13.26813906940112453
 20
-37.99935362819714868
 10
-12.93147910117799171
 20
-37.21496770035297175
 10
-12.77512721308235477
 20
-36.38048716696397378
 10
-12.91350872192749399
 20
-35.71224526221028839
 10
-13.07804241079094609
 20
-35.52902664941336042
 10
-12.67021674137448706
 20
-35.38913621108362406
 10
-11.1908954199536268
 20
-37.61559895525097375
  0
HATCH
  5
87
330
6d
100
AcDbEntity
  8
Antarctica_29_WGS84_new
420
15233421
100
AcDbHatch
 10
0.0
 20
0.0
 30
0.0
210
0.0
220
0.0
230
1.0
  2
SOLID
 70
     1
 71
     0
 91
     1
 92
     2
 72
     0
 73
     1
 93
     8
 10
-11.1908954199536268
 20
-37.61559895525097375
 10
-13.26813906940112453
 20
-37.99935362819714868
 10
-12.93147910117799171
 20
-37.21496770035297175
 10
-12.77512721308235477
 20
-36.38048716696397378
 10
-12.91350872192749399
 20
-35.71224526221028839
 10
-13.07804241079094609
 20
-35.52902664941336042
 10
-12.67021674137448706
 20
-35.38913621108362406
 10
-11.1908954199536268
 20
-37.61559895525097375
 97
     0
 75
     0
 76
     1
 98
     0
  0
LWPOLYLINE
  5
88
  8
Antarctica_29_WGS84_new
100
AcDbEntity
100
AcDbPolyline
  6
CONTINUOUS
420
2302755
 90
    13
 70
   129
 43
0.00000000233561974
 10
-12.91350872192749399
 20
-35.71224526221028839
 10
-12.77512721308235477
 20
-36.38048716696397378
 10
-12.93147910117799171
 20
-37.21496770035297175
 10
-13.26813906940112453
 20
-37.99935362819714868
 10
-13.80979866912098153
 20
-38.11560149180001389
 10
-13.88768213785535011
 20
-37.4398572650169541
 10
-13.46011668484814372
 20
-37.34427117975819499
 10
-13.30334852407236745
 20
-36.72088555819326672
 10
-13.12658524168562302
 20
-36.38715051686767055
 10
-13.38067539597224354
 20
-35.92961640988610839
 10
-13.49064500603696715
 20
-35.67173027269894447
 10
-13.07804241079094609
 20
-35.52902664941336042
 10
-12.91350872192749399
 20
-35.71224526221028839
  0
HATCH
  5
89
330
6d
100
AcDbEntity
  8
Antarctica_29_WGS84_new
420
15233421
100
AcDbHatch
 10
0.0
 20
0.0
 30
0.0
210
0.0
220
0.0
230
1.0
  2
SOLID
 70
     1
 71
     0
 91
     1
 92
     2
 72
     0
 73
     1
 93
    13
 10
-12.91350872192749399
 20
-35.71224526221028839
 10
-12.77512721308235477
 20
-36.38048716696397378
 10
-12.93147910117799171
 20
-37.21496770035297175
 10
-13.26813906940112453
 20
-37.99935362819714868
 10
-13.80979866912098153
 20
-38.11560149180001389
 10
-13.88768213785535011
 20
-37.4398572650169541
 10
-13.46011668484814372
 20
-37.34427117975819499
 10
-13.30334852407236745
 20
-36.72088555819326672
 10
-13.12658524168562302
 20
-36.38715051686767055
 10
-13.38067539597224354
 20
-35.92961640988610839
 10
-13.49064500603696715
 20
-35.67173027269894447
 10
-13.07804241079094609
 20
-35.52902664941336042
 10
-12.91350872192749399
 20
-35.71224526221028839
 97
     0
 75
     0
 76
     1
 98
     0
  0
LWPOLYLINE
  5
8a
  8
Antarctica_29_WGS84_new
100
AcDbEntity
100
AcDbPolyline
  6
CONTINUOUS
420
2302755
 90
    14
 70
   129
 43
0.00000000233561974
 10
-8.69148624146218118
 20
-53.76043832580405279
 10
-9.85229127160327423
 20
-54.02400624518673311
 10
-10.78314378075560498
 20
-55.06080677993884365
 10
-12.47061631853645025
 20
-56.09545138449966828
 10
-13.4901772441352179
 20
-57.23698997170760094
 10
-15.68790730513447507
 20
-56.36168484040651094
 10
-15.2380145277949488
 20
-55.83226948363272868
 10
-13.33933404919628352
 20
-54.97579762193946351
 10
-11.9537363908586034
 20
-53.89729569953704669
 10
-12.12118598553833948
 20
-53.28498929068399548
 10
-12.61485115345953645
 20
-52.48484564713872658
 10
-12.05505739831447265
 20
-51.75821622574921577
 10
-8.62254679893573339
 20
-51.69724381379171518
 10
-8.69148624146218118
 20
-53.76043832580405279
  0
HATCH
  5
8b
330
6d
100
AcDbEntity
  8
Antarctica_29_WGS84_new
420
15233421
100
AcDbHatch
 10
0.0
 20
0.0
 30
0.0
210
0.0
220
0.0
230
1.0
  2
SOLID
 70
     1
 71
     0
 91
     1
 92
     2
 72
     0
 73
     1
 93
    14
 10
-8.69148624146218118
 20
-53.76043832580405279
 10
-9.85229127160327423
 20
-54.02400624518673311
 10
-10.78314378075560498
 20
-55.06080677993884365
 10
-12.47061631853645025
 20
-56.09545138449966828
 10
-13.4901772441352179
 20
-57.23698997170760094
 10
-15.68790730513447507
 20
-56.36168484040651094
 10
-15.2380145277949488
 20
-55.83226948363272868
 10
-13.33933404919628352
 20
-54.97579762193946351
 10
-11.9537363908586034
 20
-53.89729569953704669
 10
-12.12118598553833948
 20
-53.28498929068399548
 10
-12.61485115345953645
 20
-52.48484564713872658
 10
-12.05505739831447265
 20
-51.75821622574921577
 10
-8.62254679893573339
 20
-51.69724381379171518
 10
-8.69148624146218118
 20
-53.76043832580405279
 97
     0
 75
     0
 76
     1
 98
     0
  0
LWPOLYLINE
  5
8c
  8
Antarctica_29_WGS84_new
100
AcDbEntity
100
AcDbPolyline
  6
CONTINUOUS
420
2302755
 90
    13
 70
   129
 43
0.00000000233561974
 10
-7.17348748891217713
 20
-52.78334306050064839
 10
-7.7045713401182887
 20
-54.31178184882101334
 10
-8.72786706562045822
 20
-54.98521138840817457
 10
-10.46490722364861448
 20
-56.57191364976821291
 10
-12.97984326552071721
 20
-57.36717530001764231
 10
-13.4901772441352179
 20
-57.23698997170760094
 10
-12.47061631853645025
 20
-56.09545138449966828
 10
-10.78314378075560498
 20
-55.06080677993884365
 10
-9.85229127160327423
 20
-54.02400624518673311
 10
-8.69148624146218118
 20
-53.76043832580405279
 10
-8.62254679893573339
 20
-51.69724381379171518
 10
-7.36513818552313992
 20
-51.61089663322604792
 10
-7.17348748891217713
 20
-52.78334306050064839
  0
HATCH
  5
8d
330
6d
100
AcDbEntity
  8
Antarctica_29_WGS84_new
420
15233421
100
AcDbHatch
 10
0.0
 20
0.0
 30
0.0
210
0.0
220
0.0
230
1.0
  2
SOLID
 70
     1
 71
     0
 91
     1
 92
     2
 72
     0
 73
     1
 93
    13
 10
-7.17348748891217713
 20
-52.78334306050064839
 10
-7.7045713401182887
 20
-54.31178184882101334
 10
-8.72786706562045822
 20
-54.98521138840817457
 10
-10.46490722364861448
 20
-56.57191364976821291
 10
-12.97984326552071721
 20
-57.36717530001764231
 10
-13.4901772441352179
 20
-57.23698997170760094
 10
-12.47061631853645025
 20
-56.09545138449966828
 10
-10.78314378075560498
 20
-55.06080677993884365
 10
-9.85229127160327423
 20
-54.02400624518673311
 10
-8.69148624146218118
 20
-53.76043832580405279
 10
-8.62254679893573339
 20
-51.69724381379171518
 10
-7.36513818552313992
 20
-51.61089663322604792
 10
-7.17348748891217713
 20
-52.78334306050064839
 97
     0
 75
     0
 76
     1
 98
     0
  0
LWPOLYLINE
  5
8e
  8
Antarctica_29_WGS84_new
100
AcDbEntity
100
AcDbPolyline
  6
CONTINUOUS
420
2302755
 90
    12
 70
   129
 43
0.00000000233561974
 10
-5.94867496640805182
 20
-51.62556178921258265
 10
-7.07566420821411857
 20
-54.49181617480664386
 10
-8.94622079123974778
 20
-56.94541787658780407
 10
-10.23067568562914254
 20
-57.05956925434060167
 10
-10.70903615617531202
 20
-58.13712242850149181
 10
-12.97984326552071721
 20
-57.36717530001764231
 10
-10.46490722364861448
 20
-56.57191364976821291
 10
-8.72786706562045822
 20
-54.98521138840817457
 10
-7.7045713401182887
 20
-54.31178184882101334
 10
-7.17348748891217713
 20
-52.78334306050064839
 10
-7.36513818552313992
 20
-51.61089663322604792
 10
-5.94867496640805182
 20
-51.62556178921258265
  0
HATCH
  5
8f
330
6d
100
AcDbEntity
  8
Antarctica_29_WGS84_new
420
15233421
100
AcDbHatch
 10
0.0
 20
0.0
 30
0.0
210
0.0
220
0.0
230
1.0
  2
SOLID
 70
     1
 71
     0
 91
     1
 92
     2
 72
     0
 73
     1
 93
    12
 10
-5.94867496640805182
 20
-51.62556178921258265
 10
-7.07566420821411857
 20
-54.49181617480664386
 10
-8.94622079123974778
 20
-56.94541787658780407
 10
-10.23067568562914254
 20
-57.05956925434060167
 10
-10.70903615617531202
 20
-58.13712242850149181
 10
-12.97984326552071721
 20
-57.36717530001764231
 10
-10.46490722364861448
 20
-56.57191364976821291
 10
-8.72786706562045822
 20
-54.98521138840817457
 10
-7.7045713401182887
 20
-54.31178184882101334
 10
-7.17348748891217713
 20
-52.78334306050064839
 10
-7.36513818552313992
 20
-51.61089663322604792
 10
-5.94867496640805182
 20
-51.62556178921258265
 97
     0
 75
     0
 76
     1
 98
     0
  0
LWPOLYLINE
  5
90
  8
Antarctica_29_WGS84_new
100
AcDbEntity
100
AcDbPolyline
  6
CONTINUOUS
420
2302755
 90
    10
 70
   129
 43
0.00000000233561974
 10
-3.43022013639820988
 20
-51.60839166996480287
 10
-6.33248849595631214
 20
-55.28595975877729529
 10
-7.51054897971449709
 20
-58.66053522118243535
 10
-8.53016041429789595
 20
-58.86088204127800338
 10
-10.70903615617531202
 20
-58.13712242850149181
 10
-10.23067568562914254
 20
-57.05956925434060167
 10
-8.94622079123974778
 20
-56.94541787658780407
 10
-7.07566420821411857
 20
-54.49181617480664386
 10
-5.94867496640805182
 20
-51.62556178921258265
 10
-3.43022013639820988
 20
-51.60839166996480287
  0
HATCH
  5
91
330
6d
100
AcDbEntity
  8
Antarctica_29_WGS84_new
420
15233421
100
AcDbHatch
 10
0.0
 20
0.0
 30
0.0
210
0.0
220
0.0
230
1.0
  2
SOLID
 70
     1
 71
     0
 91
     1
 92
     2
 72
     0
 73
     1
 93
    10
 10
-3.43022013639820988
 20
-51.60839166996480287
 10
-6.33248849595631214
 20
-55.28595975877729529
 10
-7.51054897971449709
 20
-58.66053522118243535
 10
-8.53016041429789595
 20
-58.86088204127800338
 10
-10.70903615617531202
 20
-58.13712242850149181
 10
-10.23067568562914254
 20
-57.05956925434060167
 10
-8.94622079123974778
 20
-56.94541787658780407
 10
-7.07566420821411857
 20
-54.49181617480664386
 10
-5.94867496640805182
 20
-51.62556178921258265
 10
-3.43022013639820988
 20
-51.60839166996480287
 97
     0
 75
     0
 76
     1
 98
     0
  0
LWPOLYLINE
  5
92
  8
Antarctica_29_WGS84_new
100
AcDbEntity
100
AcDbPolyline
  6
CONTINUOUS
420
2302755
 90
     7
 70
   129
 43
0.00000000233561974
 10
-12.20715484245108584
 20
-41.47940306622079731
 10
-13.51987961868038113
 20
-41.90485523285810388
 10
-13.45552338816630211
 20
-41.51631461510458365
 10
-13.8123519295650965
 20
-38.66009256157781238
 10
-13.80979866912098153
 20
-38.11560149180001389
 10
-13.26813906940112453
 20
-37.99935362819714868
 10
-12.20715484245108584
 20
-41.47940306622079731
  0
HATCH
  5
93
330
6d
100
AcDbEntity
  8
Antarctica_29_WGS84_new
420
15233421
100
AcDbHatch
 10
0.0
 20
0.0
 30
0.0
210
0.0
220
0.0
230
1.0
  2
SOLID
 70
     1
 71
     0
 91
     1
 92
     2
 72
     0
 73
     1
 93
     7
 10
-12.20715484245108584
 20
-41.47940306622079731
 10
-13.51987961868038113
 20
-41.90485523285810388
 10
-13.45552338816630211
 20
-41.51631461510458365
 10
-13.8123519295650965
 20
-38.66009256157781238
 10
-13.80979866912098153
 20
-38.11560149180001389
 10
-13.26813906940112453
 20
-37.99935362819714868
 10
-12.20715484245108584
 20
-41.47940306622079731
 97
     0
 75
     0
 76
     1
 98
     0
  0
LWPOLYLINE
  5
94
  8
Antarctica_29_WGS84_new
100
AcDbEntity
100
AcDbPolyline
  6
CONTINUOUS
420
2302755
 90
     6
 70
   129
 43
0.00000000233561974
 10
-9.95863530461038593
 20
-39.89951695948010268
 10
-9.20149938031328496
 20
-40.29761679593635648
 10
-12.20715484245108584
 20
-41.47940306622079731
 10
-13.26813906940112453
 20
-37.99935362819714868
 10
-11.1908954199536268
 20
-37.61559895525097375
 10
-9.95863530461038593
 20
-39.89951695948010268
  0
HATCH
  5
95
330
6d
100
AcDbEntity
  8
Antarctica_29_WGS84_new
420
15233421
100
AcDbHatch
 10
0.0
 20
0.0
 30
0.0
210
0.0
220
0.0
230
1.0
  2
SOLID
 70
     1
 71
     0
 91
     1
 92
     2
 72
     0
 73
     1
 93
     6
 10
-9.95863530461038593
 20
-39.89951695948010268
 10
-9.20149938031328496
 20
-40.29761679593635648
 10
-12.20715484245108584
 20
-41.47940306622079731
 10
-13.26813906940112453
 20
-37.99935362819714868
 10
-11.1908954199536268
 20
-37.61559895525097375
 10
-9.95863530461038593
 20
-39.89951695948010268
 97
     0
 75
     0
 76
     1
 98
     0
  0
LWPOLYLINE
  5
96
  8
Antarctica_29_WGS84_new
100
AcDbEntity
100
AcDbPolyline
  6
CONTINUOUS
420
2302755
 90
     6
 70
   129
 43
0.00000000233561974
 10
-7.26119548392789493
 20
-39.67258367449395706
 10
-9.20149938031328496
 20
-40.29761679593635648
 10
-9.95863530461038593
 20
-39.89951695948010268
 10
-11.1908954199536268
 20
-37.61559895525097375
 10
-8.72843415434155112
 20
-36.85403393763873225
 10
-7.26119548392789493
 20
-39.67258367449395706
  0
HATCH
  5
97
330
6d
100
AcDbEntity
  8
Antarctica_29_WGS84_new
420
15233421
100
AcDbHatch
 10
0.0
 20
0.0
 30
0.0
210
0.0
220
0.0
230
1.0
  2
SOLID
 70
     1
 71
     0
 91
     1
 92
     2
 72
     0
 73
     1
 93
     6
 10
-7.26119548392789493
 20
-39.67258367449395706
 10
-9.20149938031328496
 20
-40.29761679593635648
 10
-9.95863530461038593
 20
-39.89951695948010268
 10
-11.1908954199536268
 20
-37.61559895525097375
 10
-8.72843415434155112
 20
-36.85403393763873225
 10
-7.26119548392789493
 20
-39.67258367449395706
 97
     0
 75
     0
 76
     1
 98
     0
  0
LWPOLYLINE
  5
98
  8
Antarctica_29_WGS84_new
100
AcDbEntity
100
AcDbPolyline
  6
CONTINUOUS
420
2302755
 90
     5
 70
   129
 43
0.00000000233561974
 10
-5.57863821159014606
 20
-39.08797169907452229
 10
-7.26119548392789493
 20
-39.67258367449395706
 10
-8.72843415434155112
 20
-36.85403393763873225
 10
-6.5857527373903002
 20
-36.22037096210206641
 10
-5.57863821159014606
 20
-39.08797169907452229
  0
HATCH
  5
99
330
6d
100
AcDbEntity
  8
Antarctica_29_WGS84_new
420
15233421
100
AcDbHatch
 10
0.0
 20
0.0
 30
0.0
210
0.0
220
0.0
230
1.0
  2
SOLID
 70
     1
 71
     0
 91
     1
 92
     2
 72
     0
 73
     1
 93
     5
 10
-5.57863821159014606
 20
-39.08797169907452229
 10
-7.26119548392789493
 20
-39.67258367449395706
 10
-8.72843415434155112
 20
-36.85403393763873225
 10
-6.5857527373903002
 20
-36.22037096210206641
 10
-5.57863821159014606
 20
-39.08797169907452229
 97
     0
 75
     0
 76
     1
 98
     0
  0
LWPOLYLINE
  5
9a
  8
Antarctica_29_WGS84_new
100
AcDbEntity
100
AcDbPolyline
  6
CONTINUOUS
420
2302755
 90
    14
 70
   129
 43
0.00000000233561974
 10
-11.84064927191321281
 20
-44.11129841243827343
 10
-10.13674576660624282
 20
-45.51268497526655921
 10
-10.01548171233087459
 20
-46.07706608865593978
 10
-12.44874540598448576
 20
-46.39718489128795653
 10
-12.7797430993672787
 20
-45.81799085126008464
 10
-13.19011318926468945
 20
-44.98275150761249819
 10
-15.34993814921006994
 20
-43.81818511514337899
 10
-15.29841175047441304
 20
-43.10235558806154899
 10
-17.84481445839707447
 20
-42.50926671644678834
 10
-18.41358975912712381
 20
-41.90469619815497992
 10
-15.88582514373114485
 20
-42.03664440659128587
 10
-13.51987961868038113
 20
-41.90485523285810388
 10
-12.20715484245108584
 20
-41.47940306622079731
 10
-11.84064927191321281
 20
-44.11129841243827343
  0
HATCH
  5
9b
330
6d
100
AcDbEntity
  8
Antarctica_29_WGS84_new
420
15233421
100
AcDbHatch
 10
0.0
 20
0.0
 30
0.0
210
0.0
220
0.0
230
1.0
  2
SOLID
 70
     1
 71
     0
 91
     1
 92
     2
 72
     0
 73
     1
 93
    14
 10
-11.84064927191321281
 20
-44.11129841243827343
 10
-10.13674576660624282
 20
-45.51268497526655921
 10
-10.01548171233087459
 20
-46.07706608865593978
 10
-12.44874540598448576
 20
-46.39718489128795653
 10
-12.7797430993672787
 20
-45.81799085126008464
 10
-13.19011318926468945
 20
-44.98275150761249819
 10
-15.34993814921006994
 20
-43.81818511514337899
 10
-15.29841175047441304
 20
-43.10235558806154899
 10
-17.84481445839707447
 20
-42.50926671644678834
 10
-18.41358975912712381
 20
-41.90469619815497992
 10
-15.88582514373114485
 20
-42.03664440659128587
 10
-13.51987961868038113
 20
-41.90485523285810388
 10
-12.20715484245108584
 20
-41.47940306622079731
 10
-11.84064927191321281
 20
-44.11129841243827343
 97
     0
 75
     0
 76
     1
 98
     0
  0
LWPOLYLINE
  5
9c
  8
Antarctica_29_WGS84_new
100
AcDbEntity
100
AcDbPolyline
  6
CONTINUOUS
420
2302755
 90
     9
 70
   129
 43
0.00000000233561974
 10
-8.74442320344148172
 20
-41.63403756038011494
 10
-9.01343537046142274
 20
-44.1156826015020016
 10
-8.25367070227015454
 20
-46.17807518536313438
 10
-10.01548171233087459
 20
-46.07706608865593978
 10
-10.13674576660624282
 20
-45.51268497526655921
 10
-11.84064927191321281
 20
-44.11129841243827343
 10
-12.20715484245108584
 20
-41.47940306622079731
 10
-9.20149938031328496
 20
-40.29761679593635648
 10
-8.74442320344148172
 20
-41.63403756038011494
  0
HATCH
  5
9d
330
6d
100
AcDbEntity
  8
Antarctica_29_WGS84_new
420
15233421
100
AcDbHatch
 10
0.0
 20
0.0
 30
0.0
210
0.0
220
0.0
230
1.0
  2
SOLID
 70
     1
 71
     0
 91
     1
 92
     2
 72
     0
 73
     1
 93
     9
 10
-8.74442320344148172
 20
-41.63403756038011494
 10
-9.01343537046142274
 20
-44.1156826015020016
 10
-8.25367070227015454
 20
-46.17807518536313438
 10
-10.01548171233087459
 20
-46.07706608865593978
 10
-10.13674576660624282
 20
-45.51268497526655921
 10
-11.84064927191321281
 20
-44.11129841243827343
 10
-12.20715484245108584
 20
-41.47940306622079731
 10
-9.20149938031328496
 20
-40.29761679593635648
 10
-8.74442320344148172
 20
-41.63403756038011494
 97
     0
 75
     0
 76
     1
 98
     0
  0
LWPOLYLINE
  5
9e
  8
Antarctica_29_WGS84_new
100
AcDbEntity
100
AcDbPolyline
  6
CONTINUOUS
420
2302755
 90
     9
 70
   129
 43
0.00000000233561974
 10
-6.19281129704680211
 20
-41.47301393704506722
 10
-5.99627016291520398
 20
-43.7745989306060892
 10
-7.26479161843381416
 20
-46.22447614845067676
 10
-8.25367070227015454
 20
-46.17807518536313438
 10
-9.01343537046142274
 20
-44.1156826015020016
 10
-8.74442320344148172
 20
-41.63403756038011494
 10
-9.20149938031328496
 20
-40.29761679593635648
 10
-7.26119548392789493
 20
-39.67258367449395706
 10
-6.19281129704680211
 20
-41.47301393704506722
  0
HATCH
  5
9f
330
6d
100
AcDbEntity
  8
Antarctica_29_WGS84_new
420
15233421
100
AcDbHatch
 10
0.0
 20
0.0
 30
0.0
210
0.0
220
0.0
230
1.0
  2
SOLID
 70
     1
 71
     0
 91
     1
 92
     2
 72
     0
 73
     1
 93
     9
 10
-6.19281129704680211
 20
-41.47301393704506722
 10
-5.99627016291520398
 20
-43.7745989306060892
 10
-7.26479161843381416
 20
-46.22447614845067676
 10
-8.25367070227015454
 20
-46.17807518536313438
 10
-9.01343537046142274
 20
-44.1156826015020016
 10
-8.74442320344148172
 20
-41.63403756038011494
 10
-9.20149938031328496
 20
-40.29761679593635648
 10
-7.26119548392789493
 20
-39.67258367449395706
 10
-6.19281129704680211
 20
-41.47301393704506722
 97
     0
 75
     0
 76
     1
 98
     0
  0
LWPOLYLINE
  5
a0
  8
Antarctica_29_WGS84_new
100
AcDbEntity
100
AcDbPolyline
  6
CONTINUOUS
420
2302755
 90
    13
 70
   129
 43
0.00000000233561974
 10
-10.33157841679801336
 20
-48.18770186618829143
 10
-10.48727043251593649
 20
-48.74203883174435248
 10
-8.98850679147123266
 20
-50.45442294127700933
 10
-9.09328095902930755
 20
-50.94532033539339011
 10
-8.62254679893573339
 20
-51.69724381379171518
 10
-12.05505739831447265
 20
-51.75821622574921577
 10
-11.82556494944723013
 20
-51.23594121476107688
 10
-11.72037176177864737
 20
-50.38602459881346363
 10
-11.50073080390568769
 20
-49.51787727124159488
 10
-11.64399635985068038
 20
-48.74278203058383951
 10
-11.3179945566314224
 20
-48.49964513968605218
 10
-11.40948462871917179
 20
-48.20320219035382792
 10
-10.33157841679801336
 20
-48.18770186618829143
  0
HATCH
  5
a1
330
6d
100
AcDbEntity
  8
Antarctica_29_WGS84_new
420
15233421
100
AcDbHatch
 10
0.0
 20
0.0
 30
0.0
210
0.0
220
0.0
230
1.0
  2
SOLID
 70
     1
 71
     0
 91
     1
 92
     2
 72
     0
 73
     1
 93
    13
 10
-10.33157841679801336
 20
-48.18770186618829143
 10
-10.48727043251593649
 20
-48.74203883174435248
 10
-8.98850679147123266
 20
-50.45442294127700933
 10
-9.09328095902930755
 20
-50.94532033539339011
 10
-8.62254679893573339
 20
-51.69724381379171518
 10
-12.05505739831447265
 20
-51.75821622574921577
 10
-11.82556494944723013
 20
-51.23594121476107688
 10
-11.72037176177864737
 20
-50.38602459881346363
 10
-11.50073080390568769
 20
-49.51787727124159488
 10
-11.64399635985068038
 20
-48.74278203058383951
 10
-11.3179945566314224
 20
-48.49964513968605218
 10
-11.40948462871917179
 20
-48.20320219035382792
 10
-10.33157841679801336
 20
-48.18770186618829143
 97
     0
 75
     0
 76
     1
 98
     0
  0
LWPOLYLINE
  5
a2
  8
Antarctica_29_WGS84_new
100
AcDbEntity
100
AcDbPolyline
  6
CONTINUOUS
420
2302755
 90
    10
 70
   129
 43
0.00000000233561974
 10
-7.72766161134264973
 20
-50.37724284659005036
 10
-7.85141413168786517
 20
-50.9220308806042965
 10
-7.36513818552313992
 20
-51.61089663322604792
 10
-8.62254679893573339
 20
-51.69724381379171518
 10
-9.09328095902930755
 20
-50.94532033539339011
 10
-8.98850679147123266
 20
-50.45442294127700933
 10
-10.48727043251593649
 20
-48.74203883174435248
 10
-10.33157841679801336
 20
-48.18770186618829143
 10
-7.91183674784343971
 20
-48.06051274606546286
 10
-7.72766161134264973
 20
-50.37724284659005036
  0
HATCH
  5
a3
330
6d
100
AcDbEntity
  8
Antarctica_29_WGS84_new
420
15233421
100
AcDbHatch
 10
0.0
 20
0.0
 30
0.0
210
0.0
220
0.0
230
1.0
  2
SOLID
 70
     1
 71
     0
 91
     1
 92
     2
 72
     0
 73
     1
 93
    10
 10
-7.72766161134264973
 20
-50.37724284659005036
 10
-7.85141413168786517
 20
-50.9220308806042965
 10
-7.36513818552313992
 20
-51.61089663322604792
 10
-8.62254679893573339
 20
-51.69724381379171518
 10
-9.09328095902930755
 20
-50.94532033539339011
 10
-8.98850679147123266
 20
-50.45442294127700933
 10
-10.48727043251593649
 20
-48.74203883174435248
 10
-10.33157841679801336
 20
-48.18770186618829143
 10
-7.91183674784343971
 20
-48.06051274606546286
 10
-7.72766161134264973
 20
-50.37724284659005036
 97
     0
 75
     0
 76
     1
 98
     0
  0
LWPOLYLINE
  5
a4
  8
Antarctica_29_WGS84_new
100
AcDbEntity
100
AcDbPolyline
  6
CONTINUOUS
420
2302755
 90
     8
 70
   129
 43
0.00000000233561974
 10
-5.18852880297685637
 20
-47.93082782455438462
 10
-5.87540156246296519
 20
-48.52913710581774609
 10
-5.94867496640805182
 20
-51.62556178921258265
 10
-7.36513818552313992
 20
-51.61089663322604792
 10
-7.85141413168786517
 20
-50.9220308806042965
 10
-7.72766161134264973
 20
-50.37724284659005036
 10
-7.91183674784343971
 20
-48.06051274606546286
 10
-5.18852880297685637
 20
-47.93082782455438462
  0
HATCH
  5
a5
330
6d
100
AcDbEntity
  8
Antarctica_29_WGS84_new
420
15233421
100
AcDbHatch
 10
0.0
 20
0.0
 30
0.0
210
0.0
220
0.0
230
1.0
  2
SOLID
 70
     1
 71
     0
 91
     1
 92
     2
 72
     0
 73
     1
 93
     8
 10
-5.18852880297685637
 20
-47.93082782455438462
 10
-5.87540156246296519
 20
-48.52913710581774609
 10
-5.94867496640805182
 20
-51.62556178921258265
 10
-7.36513818552313992
 20
-51.61089663322604792
 10
-7.85141413168786517
 20
-50.9220308806042965
 10
-7.72766161134264973
 20
-50.37724284659005036
 10
-7.91183674784343971
 20
-48.06051274606546286
 10
-5.18852880297685637
 20
-47.93082782455438462
 97
     0
 75
     0
 76
     1
 98
     0
  0
LWPOLYLINE
  5
a6
  8
Antarctica_29_WGS84_new
100
AcDbEntity
100
AcDbPolyline
  6
CONTINUOUS
420
2302755
 90
     7
 70
   129
 43
0.00000000233561974
 10
-3.22286384803230064
 20
-47.81799312001994195
 10
-3.84833002753779141
 20
-48.83531433472570882
 10
-3.43022013639820988
 20
-51.60839166996480287
 10
-5.94867496640805182
 20
-51.62556178921258265
 10
-5.87540156246296519
 20
-48.52913710581774609
 10
-5.18852880297685637
 20
-47.93082782455438462
 10
-3.22286384803230064
 20
-47.81799312001994195
  0
HATCH
  5
a7
330
6d
100
AcDbEntity
  8
Antarctica_29_WGS84_new
420
15233421
100
AcDbHatch
 10
0.0
 20
0.0
 30
0.0
210
0.0
220
0.0
230
1.0
  2
SOLID
 70
     1
 71
     0
 91
     1
 92
     2
 72
     0
 73
     1
 93
     7
 10
-3.22286384803230064
 20
-47.81799312001994195
 10
-3.84833002753779141
 20
-48.83531433472570882
 10
-3.43022013639820988
 20
-51.60839166996480287
 10
-5.94867496640805182
 20
-51.62556178921258265
 10
-5.87540156246296519
 20
-48.52913710581774609
 10
-5.18852880297685637
 20
-47.93082782455438462
 10
-3.22286384803230064
 20
-47.81799312001994195
 97
     0
 75
     0
 76
     1
 98
     0
  0
LWPOLYLINE
  5
a8
  8
Antarctica_29_WGS84_new
100
AcDbEntity
100
AcDbPolyline
  6
CONTINUOUS
420
2302755
 90
     7
 70
   129
 43
0.00000000233561974
 10
-7.26479161843381416
 20
-46.22447614845067676
 10
-6.37107530131269684
 20
-47.02881975124191172
 10
-5.29488861205793171
 20
-47.50181548767383788
 10
-5.18852880297685637
 20
-47.93082782455438462
 10
-7.91183674784343971
 20
-48.06051274606546286
 10
-8.25367070227015454
 20
-46.17807518536313438
 10
-7.26479161843381416
 20
-46.22447614845067676
  0
HATCH
  5
a9
330
6d
100
AcDbEntity
  8
Antarctica_29_WGS84_new
420
15233421
100
AcDbHatch
 10
0.0
 20
0.0
 30
0.0
210
0.0
220
0.0
230
1.0
  2
SOLID
 70
     1
 71
     0
 91
     1
 92
     2
 72
     0
 73
     1
 93
     7
 10
-7.26479161843381416
 20
-46.22447614845067676
 10
-6.37107530131269684
 20
-47.02881975124191172
 10
-5.29488861205793171
 20
-47.50181548767383788
 10
-5.18852880297685637
 20
-47.93082782455438462
 10
-7.91183674784343971
 20
-48.06051274606546286
 10
-8.25367070227015454
 20
-46.17807518536313438
 10
-7.26479161843381416
 20
-46.22447614845067676
 97
     0
 75
     0
 76
     1
 98
     0
  0
LWPOLYLINE
  5
aa
  8
Antarctica_29_WGS84_new
100
AcDbEntity
100
AcDbPolyline
  6
CONTINUOUS
420
2302755
 90
     6
 70
   129
 43
0.00000000233561974
 10
-8.25367070227015454
 20
-46.17807518536313438
 10
-7.91183674784343971
 20
-48.06051274606546286
 10
-10.33157841679801336
 20
-48.18770186618829143
 10
-10.08557833391876812
 20
-47.04904191209423203
 10
-10.01548171233087459
 20
-46.07706608865593978
 10
-8.25367070227015454
 20
-46.17807518536313438
  0
HATCH
  5
ab
330
6d
100
AcDbEntity
  8
Antarctica_29_WGS84_new
420
15233421
100
AcDbHatch
 10
0.0
 20
0.0
 30
0.0
210
0.0
220
0.0
230
1.0
  2
SOLID
 70
     1
 71
     0
 91
     1
 92
     2
 72
     0
 73
     1
 93
     6
 10
-8.25367070227015454
 20
-46.17807518536313438
 10
-7.91183674784343971
 20
-48.06051274606546286
 10
-10.33157841679801336
 20
-48.18770186618829143
 10
-10.08557833391876812
 20
-47.04904191209423203
 10
-10.01548171233087459
 20
-46.07706608865593978
 10
-8.25367070227015454
 20
-46.17807518536313438
 97
     0
 75
     0
 76
     1
 98
     0
  0
LWPOLYLINE
  5
ac
  8
Antarctica_29_WGS84_new
100
AcDbEntity
100
AcDbPolyline
  6
CONTINUOUS
420
2302755
 90
     7
 70
   129
 43
0.00000000233561974
 10
-10.08557833391876812
 20
-47.04904191209423203
 10
-10.33157841679801336
 20
-48.18770186618829143
 10
-11.40948462871917179
 20
-48.20320219035382792
 10
-11.73766904453523452
 20
-47.22964783268628253
 10
-12.44874540598448576
 20
-46.39718489128795653
 10
-10.01548171233087459
 20
-46.07706608865593978
 10
-10.08557833391876812
 20
-47.04904191209423203
  0
HATCH
  5
ad
330
6d
100
AcDbEntity
  8
Antarctica_29_WGS84_new
420
15233421
100
AcDbHatch
 10
0.0
 20
0.0
 30
0.0
210
0.0
220
0.0
230
1.0
  2
SOLID
 70
     1
 71
     0
 91
     1
 92
     2
 72
     0
 73
     1
 93
     7
 10
-10.08557833391876812
 20
-47.04904191209423203
 10
-10.33157841679801336
 20
-48.18770186618829143
 10
-11.40948462871917179
 20
-48.20320219035382792
 10
-11.73766904453523452
 20
-47.22964783268628253
 10
-12.44874540598448576
 20
-46.39718489128795653
 10
-10.01548171233087459
 20
-46.07706608865593978
 10
-10.08557833391876812
 20
-47.04904191209423203
 97
     0
 75
     0
 76
     1
 98
     0
  0
LWPOLYLINE
  5
ae
  8
Antarctica_29_WGS84_new
100
AcDbEntity
100
AcDbPolyline
  6
CONTINUOUS
420
2302755
 90
    10
 70
   129
 43
0.00000000233561974
 10
-2.85963902123884539
 20
-41.30052742529718302
 10
-2.2193561762592795
 20
-47.04419978402437863
 10
-5.29488861205793171
 20
-47.50181548767383788
 10
-6.37107530131269684
 20
-47.02881975124191172
 10
-7.26479161843381416
 20
-46.22447614845067676
 10
-5.99627016291520398
 20
-43.7745989306060892
 10
-6.19281129704680211
 20
-41.47301393704506722
 10
-7.26119548392789493
 20
-39.67258367449395706
 10
-5.57863821159014606
 20
-39.08797169907452229
 10
-2.85963902123884539
 20
-41.30052742529718302
  0
HATCH
  5
af
330
6d
100
AcDbEntity
  8
Antarctica_29_WGS84_new
420
15233421
100
AcDbHatch
 10
0.0
 20
0.0
 30
0.0
210
0.0
220
0.0
230
1.0
  2
SOLID
 70
     1
 71
     0
 91
     1
 92
     2
 72
     0
 73
     1
 93
    10
 10
-2.85963902123884539
 20
-41.30052742529718302
 10
-2.2193561762592795
 20
-47.04419978402437863
 10
-5.29488861205793171
 20
-47.50181548767383788
 10
-6.37107530131269684
 20
-47.02881975124191172
 10
-7.26479161843381416
 20
-46.22447614845067676
 10
-5.99627016291520398
 20
-43.7745989306060892
 10
-6.19281129704680211
 20
-41.47301393704506722
 10
-7.26119548392789493
 20
-39.67258367449395706
 10
-5.57863821159014606
 20
-39.08797169907452229
 10
-2.85963902123884539
 20
-41.30052742529718302
 97
     0
 75
     0
 76
     1
 98
     0
  0
LWPOLYLINE
  5
b0
  8
Antarctica_29_WGS84_new
100
AcDbEntity
100
AcDbPolyline
  6
CONTINUOUS
420
2302755
 90
     5
 70
   129
 43
0.00000000233561974
 10
-3.22286384803230064
 20
-47.81799312001994195
 10
-5.18852880297685637
 20
-47.93082782455438462
 10
-5.29488861205793171
 20
-47.50181548767383788
 10
-2.2193561762592795
 20
-47.04419978402437863
 10
-3.22286384803230064
 20
-47.81799312001994195
  0
HATCH
  5
b1
330
6d
100
AcDbEntity
  8
Antarctica_29_WGS84_new
420
15233421
100
AcDbHatch
 10
0.0
 20
0.0
 30
0.0
210
0.0
220
0.0
230
1.0
  2
SOLID
 70
     1
 71
     0
 91
     1
 92
     2
 72
     0
 73
     1
 93
     5
 10
-3.22286384803230064
 20
-47.81799312001994195
 10
-5.18852880297685637
 20
-47.93082782455438462
 10
-5.29488861205793171
 20
-47.50181548767383788
 10
-2.2193561762592795
 20
-47.04419978402437863
 10
-3.22286384803230064
 20
-47.81799312001994195
 97
     0
 75
     0
 76
     1
 98
     0
  0
LWPOLYLINE
  5
b2
  8
Antarctica_29_WGS84_new
100
AcDbEntity
100
AcDbPolyline
  6
CONTINUOUS
420
2302755
 90
    12
 70
   129
 43
0.00000000233561974
 10
-1.69214140807033275
 20
-60.08835269983769933
 10
-8.53016041429789595
 20
-58.86088204127800338
 10
-7.51054897971449709
 20
-58.66053522118243535
 10
-6.33248849595631214
 20
-55.28595975877729529
 10
-3.43022013639820988
 20
-51.60839166996480287
 10
-3.84833002753779141
 20
-48.83531433472570882
 10
-3.22286384803230064
 20
-47.81799312001994195
 10
-2.2193561762592795
 20
-47.04419978402437863
 10
0.69398035788359003
 20
-46.05148770846398776
 10
1.65185186381955806
 20
-44.70699179302360449
 10
5.49629022095095898
 20
-43.88403350177798501
 10
-1.69214140807033275
 20
-60.08835269983769933
  0
HATCH
  5
b3
330
6d
100
AcDbEntity
  8
Antarctica_29_WGS84_new
420
15233421
100
AcDbHatch
 10
0.0
 20
0.0
 30
0.0
210
0.0
220
0.0
230
1.0
  2
SOLID
 70
     1
 71
     0
 91
     1
 92
     2
 72
     0
 73
     1
 93
    12
 10
-1.69214140807033275
 20
-60.08835269983769933
 10
-8.53016041429789595
 20
-58.86088204127800338
 10
-7.51054897971449709
 20
-58.66053522118243535
 10
-6.33248849595631214
 20
-55.28595975877729529
 10
-3.43022013639820988
 20
-51.60839166996480287
 10
-3.84833002753779141
 20
-48.83531433472570882
 10
-3.22286384803230064
 20
-47.81799312001994195
 10
-2.2193561762592795
 20
-47.04419978402437863
 10
0.69398035788359003
 20
-46.05148770846398776
 10
1.65185186381955806
 20
-44.70699179302360449
 10
5.49629022095095898
 20
-43.88403350177798501
 10
-1.69214140807033275
 20
-60.08835269983769933
 97
     0
 75
     0
 76
     1
 98
     0
  0
LWPOLYLINE
  5
b4
  8
Antarctica_29_WGS84_new
100
AcDbEntity
100
AcDbPolyline
  6
CONTINUOUS
420
2302755
 90
    13
 70
   129
 43
0.00000000233561974
 10
-2.95685324698999974
 20
-34.96688671159289186
 10
2.04479677040227026
 20
-40.34021993565077935
 10
5.49629022095095898
 20
-43.88403350177798501
 10
1.65185186381955806
 20
-44.70699179302360449
 10
0.6131853273656247
 20
-42.71936683242174126
 10
-1.90959650330650788
 20
-41.54587221337478553
 10
-2.85963902123884539
 20
-41.30052742529718302
 10
-5.57863821159014606
 20
-39.08797169907452229
 10
-6.5857527373903002
 20
-36.22037096210206641
 10
-8.04361183104184008
 20
-33.44974915351550493
 10
-9.58674754604406587
 20
-31.58843732671845572
 10
-6.61370433270662783
 20
-29.86772369737178323
 10
-2.95685324698999974
 20
-34.96688671159289186
  0
HATCH
  5
b5
330
6d
100
AcDbEntity
  8
Antarctica_29_WGS84_new
420
15233421
100
AcDbHatch
 10
0.0
 20
0.0
 30
0.0
210
0.0
220
0.0
230
1.0
  2
SOLID
 70
     1
 71
     0
 91
     1
 92
     2
 72
     0
 73
     1
 93
    13
 10
-2.95685324698999974
 20
-34.96688671159289186
 10
2.04479677040227026
 20
-40.34021993565077935
 10
5.49629022095095898
 20
-43.88403350177798501
 10
1.65185186381955806
 20
-44.70699179302360449
 10
0.6131853273656247
 20
-42.71936683242174126
 10
-1.90959650330650788
 20
-41.54587221337478553
 10
-2.85963902123884539
 20
-41.30052742529718302
 10
-5.57863821159014606
 20
-39.08797169907452229
 10
-6.5857527373903002
 20
-36.22037096210206641
 10
-8.04361183104184008
 20
-33.44974915351550493
 10
-9.58674754604406587
 20
-31.58843732671845572
 10
-6.61370433270662783
 20
-29.86772369737178323
 10
-2.95685324698999974
 20
-34.96688671159289186
 97
     0
 75
     0
 76
     1
 98
     0
  0
LWPOLYLINE
  5
b6
  8
Antarctica_29_WGS84_new
100
AcDbEntity
100
AcDbPolyline
  6
CONTINUOUS
420
2302755
 90
    10
 70
   129
 43
0.00000000233561974
 10
-8.04361183104184008
 20
-33.44974915351550493
 10
-10.09155157033208816
 20
-34.38664659543451307
 10
-12.67021674137448706
 20
-35.38913621108362406
 10
-13.07804241079094609
 20
-35.52902664941336042
 10
-13.49064500603696715
 20
-35.67173027269894447
 10
-14.34897704764740567
 20
-35.09175065872501165
 10
-16.40172141958275276
 20
-35.10548381542427876
 10
-15.06555432060201838
 20
-34.33844749114152961
 10
-9.58674754604406587
 20
-31.58843732671845572
 10
-8.04361183104184008
 20
-33.44974915351550493
  0
HATCH
  5
b7
330
6d
100
AcDbEntity
  8
Antarctica_29_WGS84_new
420
15233421
100
AcDbHatch
 10
0.0
 20
0.0
 30
0.0
210
0.0
220
0.0
230
1.0
  2
SOLID
 70
     1
 71
     0
 91
     1
 92
     2
 72
     0
 73
     1
 93
    10
 10
-8.04361183104184008
 20
-33.44974915351550493
 10
-10.09155157033208816
 20
-34.38664659543451307
 10
-12.67021674137448706
 20
-35.38913621108362406
 10
-13.07804241079094609
 20
-35.52902664941336042
 10
-13.49064500603696715
 20
-35.67173027269894447
 10
-14.34897704764740567
 20
-35.09175065872501165
 10
-16.40172141958275276
 20
-35.10548381542427876
 10
-15.06555432060201838
 20
-34.33844749114152961
 10
-9.58674754604406587
 20
-31.58843732671845572
 10
-8.04361183104184008
 20
-33.44974915351550493
 97
     0
 75
     0
 76
     1
 98
     0
  0
LWPOLYLINE
  5
b8
  8
Antarctica_29_WGS84_new
100
AcDbEntity
100
AcDbPolyline
  6
CONTINUOUS
420
2302755
 90
    12
 70
   129
 43
0.00000000233561974
 10
-13.4901772441352179
 20
-57.23698997170760094
 10
-12.97984326552071721
 20
-57.36717530001764231
 10
-10.70903615617531202
 20
-58.13712242850149181
 10
-8.53016041429789595
 20
-58.86088204127800338
 10
-1.69214140807033275
 20
-60.08835269983769933
 10
-3.1141635535179315
 20
-62.14240932831044972
 10
-15.42597948614714554
 20
-58.92112631447759696
 10
-17.0943029767696828
 20
-58.19920532850267847
 10
-15.47146740254923536
 20
-58.03432409173429818
 10
-14.69742775731223716
 20
-57.16151692951521568
 10
-15.68790730513447507
 20
-56.36168484040651094
 10
-13.4901772441352179
 20
-57.23698997170760094
  0
HATCH
  5
b9
330
6d
100
AcDbEntity
  8
Antarctica_29_WGS84_new
420
15233421
100
AcDbHatch
 10
0.0
 20
0.0
 30
0.0
210
0.0
220
0.0
230
1.0
  2
SOLID
 70
     1
 71
     0
 91
     1
 92
     2
 72
     0
 73
     1
 93
    12
 10
-13.4901772441352179
 20
-57.23698997170760094
 10
-12.97984326552071721
 20
-57.36717530001764231
 10
-10.70903615617531202
 20
-58.13712242850149181
 10
-8.53016041429789595
 20
-58.86088204127800338
 10
-1.69214140807033275
 20
-60.08835269983769933
 10
-3.1141635535179315
 20
-62.14240932831044972
 10
-15.42597948614714554
 20
-58.92112631447759696
 10
-17.0943029767696828
 20
-58.19920532850267847
 10
-15.47146740254923536
 20
-58.03432409173429818
 10
-14.69742775731223716
 20
-57.16151692951521568
 10
-15.68790730513447507
 20
-56.36168484040651094
 10
-13.4901772441352179
 20
-57.23698997170760094
 97
     0
 75
     0
 76
     1
 98
     0
  0
LWPOLYLINE
  5
ba
  8
Antarctica_29_WGS84_new
100
AcDbEntity
100
AcDbPolyline
  6
CONTINUOUS
420
2302755
 90
     7
 70
   129
 43
0.00000000233561974
 10
-2.2193561762592795
 20
-47.04419978402437863
 10
-2.85963902123884539
 20
-41.30052742529718302
 10
-1.90959650330650788
 20
-41.54587221337478553
 10
0.6131853273656247
 20
-42.71936683242174126
 10
1.65185186381955806
 20
-44.70699179302360449
 10
0.69398035788359003
 20
-46.05148770846398776
 10
-2.2193561762592795
 20
-47.04419978402437863
  0
HATCH
  5
bb
330
6d
100
AcDbEntity
  8
Antarctica_29_WGS84_new
420
15233421
100
AcDbHatch
 10
0.0
 20
0.0
 30
0.0
210
0.0
220
0.0
230
1.0
  2
SOLID
 70
     1
 71
     0
 91
     1
 92
     2
 72
     0
 73
     1
 93
     7
 10
-2.2193561762592795
 20
-47.04419978402437863
 10
-2.85963902123884539
 20
-41.30052742529718302
 10
-1.90959650330650788
 20
-41.54587221337478553
 10
0.6131853273656247
 20
-42.71936683242174126
 10
1.65185186381955806
 20
-44.70699179302360449
 10
0.69398035788359003
 20
-46.05148770846398776
 10
-2.2193561762592795
 20
-47.04419978402437863
 97
     0
 75
     0
 76
     1
 98
     0
  0
ENDSEC
0
SECTION
2
OBJECTS
0
DICTIONARY
5
C
330
0
100
AcDbDictionary
281
   1
3
ACAD_GROUP
350
D
3
ACAD_LAYOUT
350
1A
3
ACAD_MLEADERSTYLE
350
43
3
ACAD_MLINESTYLE
350
17
3
ACAD_PLOTSETTINGS
350
19
3
ACAD_PLOTSTYLENAME
350
E
3
ACAD_TABLESTYLE
350
42
3
ACAD_VISUALSTYLE
350
2A
0
DICTIONARY
5
D
102
{ACAD_REACTORS
330
C
102
}
330
C
100
AcDbDictionary
281
   1
0
DICTIONARY
5
1A
102
{ACAD_REACTORS
330
C
102
}
330
C
100
AcDbDictionary
281
   1
3
Layout1
350
1E
3
Layout2
350
26
3
Model
350
22
0
DICTIONARY
5
43
102
{ACAD_REACTORS
330
C
102
}
330
C
100
AcDbDictionary
281
   1
0
DICTIONARY
5
17
102
{ACAD_REACTORS
330
C
102
}
330
C
100
AcDbDictionary
281
   1
3
Standard
350
18
0
DICTIONARY
5
19
102
{ACAD_REACTORS
330
C
102
}
330
C
100
AcDbDictionary
281
   1
0
ACDBDICTIONARYWDFLT
5
E
102
{ACAD_REACTORS
330
C
102
}
330
C
100
AcDbDictionary
281
   1
3
Normal
350
F
100
AcDbDictionaryWithDefault
340
F
0
DICTIONARY
5
42
102
{ACAD_REACTORS
330
C
102
}
330
C
100
AcDbDictionary
281
   1
0
DICTIONARY
5
2A
102
{ACAD_REACTORS
330
C
102
}
330
C
100
AcDbDictionary
281
   1
3
2dWireframe
350
2F
3
3D Hidden
350
31
3
3dWireframe
350
30
3
Basic
350
32
3
Brighten
350
36
3
ColorChange
350
3A
3
Conceptual
350
34
3
Dim
350
35
3
Facepattern
350
39
3
Flat
350
2B
3
FlatWithEdges
350
2C
3
Gouraud
350
2D
3
GouraudWithEdges
350
2E
3
Linepattern
350
38
3
Realistic
350
33
3
Thicken
350
37
0
LAYOUT
5
1E
102
{ACAD_REACTORS
330
1A
102
}
330
1A
100
AcDbPlotSettings
1

2
none_device
4

6

40
0.0
41
0.0
42
0.0
43
0.0
44
0.0
45
0.0
46
0.0
47
0.0
48
0.0
49
0.0
140
0.0
141
0.0
142
1.0
143
1.0
70
 688
72
   0
73
   0
74
   5
7

75
  16
76
   0
77
   2
78
 300
147
1.0
148
0.0
149
0.0
100
AcDbLayout
1
Layout1
70
   1
71
   1
10
0.0
20
0.0
11
12.0
21
9.0
12
0.0
22
0.0
32
0.0
14
1.000000000000000E+20
24
1.000000000000000E+20
34
1.000000000000000E+20
15
-1.000000000000000E+20
25
-1.000000000000000E+20
35
-1.000000000000000E+20
146
0.0
13
0.0
23
0.0
33
0.0
16
1.0
26
0.0
36
0.0
17
0.0
27
1.0
37
0.0
76
   0
330
1B
0
LAYOUT
5
26
102
{ACAD_REACTORS
330
1A
102
}
330
1A
100
AcDbPlotSettings
1

2
none_device
4

6

40
0.0
41
0.0
42
0.0
43
0.0
44
0.0
45
0.0
46
0.0
47
0.0
48
0.0
49
0.0
140
0.0
141
0.0
142
1.0
143
1.0
70
 688
72
   0
73
   0
74
   5
7

75
  16
76
   0
77
   2
78
 300
147
1.0
148
0.0
149
0.0
100
AcDbLayout
1
Layout2
70
   1
71
   2
10
0.0
20
0.0
11
0.0
21
0.0
12
0.0
22
0.0
32
0.0
14
0.0
24
0.0
34
0.0
15
0.0
25
0.0
35
0.0
146
0.0
13
0.0
23
0.0
33
0.0
16
1.0
26
0.0
36
0.0
17
0.0
27
1.0
37
0.0
76
   0
330
23
0
LAYOUT
5
22
102
{ACAD_REACTORS
330
1A
102
}
330
1A
100
AcDbPlotSettings
1

2
none_device
4

6

40
0.0
41
0.0
42
0.0
43
0.0
44
0.0
45
0.0
46
0.0
47
0.0
48
0.0
49
0.0
140
0.0
141
0.0
142
1.0
143
1.0
70
1712
72
   0
73
   0
74
   0
7

75
   0
76
   0
77
   2
78
 300
147
1.0
148
0.0
149
0.0
100
AcDbLayout
1
Model
70
   1
71
   0
10
0.0
20
0.0
11
12.0
21
9.0
12
0.0
22
0.0
32
0.0
14
30.0
24
49.75
34
0.0
15
130.5
25
163.1318914119703
35
0.0
146
0.0
13
0.0
23
0.0
33
0.0
16
1.0
26
0.0
36
0.0
17
0.0
27
1.0
37
0.0
76
   0
330
1F
331
29
0
MLINESTYLE
5
18
102
{ACAD_REACTORS
330
17
102
}
330
17
100
AcDbMlineStyle
2
Standard
70
   0
3

62
 256
51
90.0
52
90.0
71
   2
49
0.5
62
 256
6
BYLAYER
49
-0.5
62
 256
6
BYLAYER
0
ACDBPLACEHOLDER
5
F
102
{ACAD_REACTORS
330
E
102
}
330
E
0
VISUALSTYLE
5
2F
102
{ACAD_REACTORS
330
2A
102
}
330
2A
100
AcDbVisualStyle
2
2dWireframe
70
   4
71
   0
72
   2
73
   0
90
      0
40
-0.6
41
-30.0
62
   5
63
   7
421
16777215
74
   1
91
      4
64
   7
65
 257
75
   1
175
   1
42
1.0
92
      0
66
 257
43
1.0
76
   1
77
   6
78
   2
67
   7
79
   5
170
   0
171
   0
290
   0
174
   0
93
      1
44
0.0
173
   0
291
   0
45
0.0
1001
ACAD
1000
AcDbSavedByObjectVersion
1070
   0
0
VISUALSTYLE
5
31
102
{ACAD_REACTORS
330
2A
102
}
330
2A
100
AcDbVisualStyle
2
3D Hidden
70
   6
71
   1
72
   2
73
   2
90
      0
40
-0.6
41
-30.0
62
   5
63
   7
421
16777215
74
   2
91
      2
64
   7
65
 257
75
   2
175
   1
42
40.0
92
      0
66
 257
43
1.0
76
   1
77
   6
78
   2
67
   7
79
   3
170
   0
171
   0
290
   0
174
   0
93
      1
44
0.0
173
   0
291
   0
45
0.0
1001
ACAD
1000
AcDbSavedByObjectVersion
1070
   0
0
VISUALSTYLE
5
30
102
{ACAD_REACTORS
330
2A
102
}
330
2A
100
AcDbVisualStyle
2
3dWireframe
70
   5
71
   0
72
   2
73
   0
90
      0
40
-0.6
41
-30.0
62
   5
63
   7
421
16777215
74
   1
91
      4
64
   7
65
 257
75
   1
175
   1
42
1.0
92
      0
66
 257
43
1.0
76
   1
77
   6
78
   2
67
   7
79
   5
170
   0
171
   0
290
   0
174
   0
93
      1
44
0.0
173
   0
291
   0
45
0.0
1001
ACAD
1000
AcDbSavedByObjectVersion
1070
   0
0
VISUALSTYLE
5
32
102
{ACAD_REACTORS
330
2A
102
}
330
2A
100
AcDbVisualStyle
2
Basic
70
   7
71
   1
72
   0
73
   1
90
      0
40
-0.6
41
-30.0
62
   5
63
   7
421
16777215
74
   0
91
      4
64
   7
65
 257
75
   1
175
   1
42
1.0
92
      8
66
   7
43
1.0
76
   1
77
   6
78
   2
67
   7
79
   5
170
   0
171
   0
290
   0
174
   0
93
      1
44
0.0
173
   0
291
   1
45
0.0
1001
ACAD
1000
AcDbSavedByObjectVersion
1070
   0
0
VISUALSTYLE
5
36
102
{ACAD_REACTORS
330
2A
102
}
330
2A
100
AcDbVisualStyle
2
Brighten
70
  12
71
   2
72
   2
73
   0
90
      0
40
-0.6
41
-30.0
62
   5
63
   7
421
16777215
74
   1
91
      4
64
   7
65
 257
75
   1
175
   1
42
1.0
92
      8
66
   7
43
1.0
76
   1
77
   6
78
   2
67
   7
79
   5
170
   0
171
   0
290
   0
174
   0
93
      1
44
50.0
173
   0
291
   1
45
0.0
1001
ACAD
1000
AcDbSavedByObjectVersion
1070
   0
0
VISUALSTYLE
5
3A
102
{ACAD_REACTORS
330
2A
102
}
330
2A
100
AcDbVisualStyle
2
ColorChange
70
  16
71
   2
72
   2
73
   3
90
      0
40
-0.6
41
-30.0
62
   5
63
   8
421
8421504
74
   1
91
      4
64
   7
65
 257
75
   1
175
   1
42
1.0
92
      8
66
   8
424
8421504
43
1.0
76
   1
77
   6
78
   2
67
   7
79
   5
170
   0
171
   0
290
   0
174
   0
93
      1
44
0.0
173
   0
291
   1
45
0.0
1001
ACAD
1000
AcDbSavedByObjectVersion
1070
   0
0
VISUALSTYLE
5
34
102
{ACAD_REACTORS
330
2A
102
}
330
2A
100
AcDbVisualStyle
2
Conceptual
70
   9
71
   3
72
   2
73
   0
90
      0
40
-0.6
41
-30.0
62
   5
63
   7
421
16777215
74
   2
91
      2
64
   7
65
 257
75
   1
175
   1
42
40.0
92
      8
66
   7
43
1.0
76
   1
77
   6
78
   2
67
   7
79
   3
170
   0
171
   0
290
   0
174
   0
93
      1
44
0.0
173
   0
291
   0
45
0.0
1001
ACAD
1000
AcDbSavedByObjectVersion
1070
   0
0
VISUALSTYLE
5
35
102
{ACAD_REACTORS
330
2A
102
}
330
2A
100
AcDbVisualStyle
2
Dim
70
  11
71
   2
72
   2
73
   0
90
      0
40
-0.6
41
-30.0
62
   5
63
   7
421
16777215
74
   1
91
      4
64
   7
65
 257
75
   1
175
   1
42
1.0
92
      8
66
   7
43
1.0
76
   1
77
   6
78
   2
67
   7
79
   5
170
   0
171
   0
290
   0
174
   0
93
      1
44
-50.0
173
   0
291
   1
45
0.0
1001
ACAD
1000
AcDbSavedByObjectVersion
1070
   0
0
VISUALSTYLE
5
39
102
{ACAD_REACTORS
330
2A
102
}
330
2A
100
AcDbVisualStyle
2
Facepattern
70
  15
71
   2
72
   2
73
   0
90
      0
40
-0.6
41
-30.0
62
   5
63
   7
421
16777215
74
   1
91
      4
64
   7
65
 257
75
   1
175
   1
42
1.0
92
      8
66
   7
43
1.0
76
   1
77
   6
78
   2
67
   7
79
   5
170
   0
171
   0
290
   0
174
   0
93
      1
44
0.0
173
   0
291
   1
45
0.0
1001
ACAD
1000
AcDbSavedByObjectVersion
1070
   0
0
VISUALSTYLE
5
2B
102
{ACAD_REACTORS
330
2A
102
}
330
2A
100
AcDbVisualStyle
2
Flat
70
   0
71
   2
72
   1
73
   1
90
      2
40
-0.6
41
30.0
62
   5
63
   7
421
16777215
74
   0
91
      4
64
   7
65
 257
75
   1
175
   1
42
1.0
92
      8
66
   7
43
1.0
76
   1
77
   6
78
   2
67
   7
79
   5
170
   0
171
   0
290
   0
174
   0
93
     13
44
0.0
173
   0
291
   1
45
0.0
1001
ACAD
1000
AcDbSavedByObjectVersion
1070
   0
0
VISUALSTYLE
5
2C
102
{ACAD_REACTORS
330
2A
102
}
330
2A
100
AcDbVisualStyle
2
FlatWithEdges
70
   1
71
   2
72
   1
73
   1
90
      2
40
-0.6
41
30.0
62
   5
63
   7
421
16777215
74
   1
91
      4
64
   7
65
 257
75
   1
175
   1
42
1.0
92
      0
66
 257
43
1.0
76
   1
77
   6
78
   2
67
   7
79
   5
170
   0
171
   0
290
   0
174
   0
93
     13
44
0.0
173
   0
291
   1
45
0.0
1001
ACAD
1000
AcDbSavedByObjectVersion
1070
   0
0
VISUALSTYLE
5
2D
102
{ACAD_REACTORS
330
2A
102
}
330
2A
100
AcDbVisualStyle
2
Gouraud
70
   2
71
   2
72
   2
73
   1
90
      2
40
-0.6
41
30.0
62
   5
63
   7
421
16777215
74
   0
91
      4
64
   7
65
 257
75
   1
175
   1
42
1.0
92
      0
66
   7
43
1.0
76
   1
77
   6
78
   2
67
   7
79
   5
170
   0
171
   0
290
   0
174
   0
93
     13
44
0.0
173
   0
291
   1
45
0.0
1001
ACAD
1000
AcDbSavedByObjectVersion
1070
   0
0
VISUALSTYLE
5
2E
102
{ACAD_REACTORS
330
2A
102
}
330
2A
100
AcDbVisualStyle
2
GouraudWithEdges
70
   3
71
   2
72
   2
73
   1
90
      2
40
-0.6
41
30.0
62
   5
63
   7
421
16777215
74
   1
91
      4
64
   7
65
 257
75
   1
175
   1
42
1.0
92
      0
66
 257
43
1.0
76
   1
77
   6
78
   2
67
   7
79
   5
170
   0
171
   0
290
   0
174
   0
93
     13
44
0.0
173
   0
291
   1
45
0.0
1001
ACAD
1000
AcDbSavedByObjectVersion
1070
   0
0
VISUALSTYLE
5
38
102
{ACAD_REACTORS
330
2A
102
}
330
2A
100
AcDbVisualStyle
2
Linepattern
70
  14
71
   2
72
   2
73
   0
90
      0
40
-0.6
41
-30.0
62
   5
63
   7
421
16777215
74
   1
91
      4
64
   7
65
 257
75
   7
175
   7
42
1.0
92
      8
66
   7
43
1.0
76
   1
77
   6
78
   2
67
   7
79
   5
170
   0
171
   0
290
   0
174
   0
93
      1
44
0.0
173
   0
291
   1
45
0.0
1001
ACAD
1000
AcDbSavedByObjectVersion
1070
   0
0
VISUALSTYLE
5
33
102
{ACAD_REACTORS
330
2A
102
}
330
2A
100
AcDbVisualStyle
2
Realistic
70
   8
71
   2
72
   2
73
   0
90
      0
40
-0.6
41
-30.0
62
   5
63
   7
421
16777215
74
   1
91
      0
64
   7
65
 257
75
   1
175
   1
42
1.0
92
      8
66
   8
424
7895160
43
1.0
76
   1
77
   6
78
   2
67
   7
79
   5
170
   0
171
   0
290
   0
174
   0
93
     13
44
0.0
173
   0
291
   0
45
0.0
1001
ACAD
1000
AcDbSavedByObjectVersion
1070
   0
0
VISUALSTYLE
5
37
102
{ACAD_REACTORS
330
2A
102
}
330
2A
100
AcDbVisualStyle
2
Thicken
70
  13
71
   2
72
   2
73
   0
90
      0
40
-0.6
41
-30.0
62
   5
63
   7
421
16777215
74
   1
91
      4
64
   7
65
 257
75
   1
175
   1
42
1.0
92
     12
66
   7
43
1.0
76
   1
77
   6
78
   2
67
   7
79
   5
170
   0
171
   0
290
   0
174
   0
93
      1
44
0.0
173
   0
291
   1
45
0.0
1001
ACAD
1000
AcDbSavedByObjectVersion
1070
   0
0
ENDSEC
  0
EOF
